<svg width="180" height="218" viewBox="0 0 180 218" fill="none" xmlns="http://www.w3.org/2000/svg">
<g filter="url(#filter0_d_215_105)">
<path d="M156.6 -1.43051e-05C162.2 -1.43051e-05 166.7 1.69999 170.1 5.09999C173.5 8.5 175.2 12.9 175.2 18.3V191.7C175.2 196.9 173.4 201.3 169.8 204.9C166.2 208.3 161.6 210 156 210C151 210 146.7 208.3 143.1 204.9C139.5 201.3 137.7 196.9 137.7 191.7V121.8H42V191.7C42 196.9 40.1 201.3 36.3 204.9C32.5 208.3 28.1 210 23.1 210C17.7 210 13.2 208.3 9.6 204.9C6.2 201.3 4.5 196.9 4.5 191.7V18.3C4.5 13.1 6.3 8.79999 9.9 5.39999C13.5 1.79999 18.1 -1.43051e-05 23.7 -1.43051e-05C28.7 -1.43051e-05 33 1.79999 36.6 5.39999C40.2 8.79999 42 13.1 42 18.3V87.3H137.7V18.3C137.7 13.1 139.6 8.79999 143.4 5.39999C147.2 1.79999 151.6 -1.43051e-05 156.6 -1.43051e-05Z" fill="#00D508"/>
<path d="M169.8 204.9L170.487 205.627L170.497 205.617L170.507 205.607L169.8 204.9ZM143.1 204.9L142.393 205.607L142.403 205.617L142.413 205.627L143.1 204.9ZM137.7 121.8H138.7V120.8H137.7V121.8ZM42 121.8V120.8H41V121.8H42ZM36.3 204.9L36.9668 205.645L36.9774 205.636L36.9877 205.626L36.3 204.9ZM9.6 204.9L8.87299 205.587L8.89261 205.607L8.91338 205.627L9.6 204.9ZM9.9 5.39999L10.5866 6.127L10.597 6.11719L10.6071 6.10709L9.9 5.39999ZM36.6 5.39999L35.8929 6.10709L35.903 6.11719L35.9134 6.127L36.6 5.39999ZM42 87.3H41V88.3H42V87.3ZM137.7 87.3V88.3H138.7V87.3H137.7ZM143.4 5.39999L144.067 6.14523L144.077 6.13573L144.088 6.12594L143.4 5.39999ZM156.6 0.999986C161.982 0.999986 166.211 2.62554 169.393 5.8071L170.807 4.39288C167.189 0.774431 162.418 -1.00001 156.6 -1.00001V0.999986ZM169.393 5.8071C172.582 8.99578 174.2 13.1296 174.2 18.3H176.2C176.2 12.6704 174.418 8.00421 170.807 4.39288L169.393 5.8071ZM174.2 18.3V191.7H176.2V18.3H174.2ZM174.2 191.7C174.2 196.641 172.501 200.785 169.093 204.193L170.507 205.607C174.299 201.815 176.2 197.159 176.2 191.7H174.2ZM169.113 204.173C165.724 207.374 161.381 209 156 209V211C161.819 211 166.676 209.226 170.487 205.627L169.113 204.173ZM156 209C151.253 209 147.199 207.396 143.787 204.173L142.413 205.627C146.201 209.204 150.747 211 156 211V209ZM143.807 204.193C140.399 200.785 138.7 196.641 138.7 191.7H136.7C136.7 197.159 138.601 201.815 142.393 205.607L143.807 204.193ZM138.7 191.7V121.8H136.7V191.7H138.7ZM137.7 120.8H42V122.8H137.7V120.8ZM41 121.8V191.7H43V121.8H41ZM41 191.7C41 196.623 39.2144 200.761 35.6123 204.174L36.9877 205.626C40.9856 201.839 43 197.177 43 191.7H41ZM35.6332 204.155C32.0126 207.394 27.8486 209 23.1 209V211C28.3514 211 32.9874 209.206 36.9668 205.645L35.6332 204.155ZM23.1 209C17.9301 209 13.6834 207.381 10.2866 204.173L8.91338 205.627C12.7166 209.219 17.4699 211 23.1 211V209ZM10.327 204.213C7.11179 200.809 5.5 196.659 5.5 191.7H3.5C3.5 197.141 5.28821 201.791 8.87299 205.587L10.327 204.213ZM5.5 191.7V18.3H3.5V191.7H5.5ZM5.5 18.3C5.5 13.3596 7.19764 9.32772 10.5866 6.127L9.21338 4.67297C5.40237 8.27227 3.5 12.8404 3.5 18.3H5.5ZM10.6071 6.10709C13.9999 2.71426 18.3361 0.999986 23.7 0.999986V-1.00001C17.8639 -1.00001 13.0001 0.885708 9.19289 4.69288L10.6071 6.10709ZM23.7 0.999986C28.4294 0.999986 32.4766 2.69079 35.8929 6.10709L37.3071 4.69288C33.5234 0.909179 28.9706 -1.00001 23.7 -1.00001V0.999986ZM35.9134 6.127C39.3024 9.32772 41 13.3596 41 18.3H43C43 12.8404 41.0976 8.27227 37.2866 4.67298L35.9134 6.127ZM41 18.3V87.3H43V18.3H41ZM42 88.3H137.7V86.3H42V88.3ZM138.7 87.3V18.3H136.7V87.3H138.7ZM138.7 18.3C138.7 13.3781 140.484 9.35128 144.067 6.14523L142.733 4.65475C138.716 8.2487 136.7 12.8219 136.7 18.3H138.7ZM144.088 6.12594C147.712 2.69279 151.869 0.999986 156.6 0.999986V-1.00001C151.331 -1.00001 146.688 0.907179 142.712 4.67404L144.088 6.12594Z" fill="black"/>
</g>
<defs>
<filter id="filter0_d_215_105" x="0.5" y="0" width="178.7" height="218" filterUnits="userSpaceOnUse" color-interpolation-filters="sRGB">
<feFlood flood-opacity="0" result="BackgroundImageFix"/>
<feColorMatrix in="SourceAlpha" type="matrix" values="0 0 0 0 0 0 0 0 0 0 0 0 0 0 0 0 0 0 127 0" result="hardAlpha"/>
<feOffset dy="4"/>
<feGaussianBlur stdDeviation="2"/>
<feComposite in2="hardAlpha" operator="out"/>
<feColorMatrix type="matrix" values="0 0 0 0 0 0 0 0 0 0 0 0 0 0 0 0 0 0 0.25 0"/>
<feBlend mode="normal" in2="BackgroundImageFix" result="effect1_dropShadow_215_105"/>
<feBlend mode="normal" in="SourceGraphic" in2="effect1_dropShadow_215_105" result="shape"/>
</filter>
</defs>
</svg>
